# xmcd
#
# Track frame offsets: 
#        150
#        13954
#        25660
#        37960
#        52957
#        66000
#        79735
#        91405
#        103062
#        115693
#        127187
#        138349
#        149289
#        158441
#        171102
#        181139
#
# Disc length: 2543 seconds
#
# Revision: 0
# Processed by: cddbd v1.5.2PL0 Copyright (c) Steve Scherf et al.
# Submitted via: ExactAudioCopy v0.99pb5
#
DISCID=cb09ed10
DTITLE=Screamin' Jay Hawkins - I put a spell on you - The singles 1954
DTITLE=1957
DYEAR=2009
DGENRE=Blues
TTITLE0=Not anymore
TTITLE1=Baptize me in wine
TTITLE2=I found my way to wine
TTITLE3=Please try to understand
TTITLE4=This is all
TTITLE5=Whamee
TTITLE6=You're all of my life to me
TTITLE7=Well I tried
TTITLE8=Even though
TTITLE9=Talk about me
TTITLE10=I put a spell on you
TTITLE11=Little demon
TTITLE12=You made me love you
TTITLE13=Darling, please, forgive me
TTITLE14=Frenzy
TTITLE15=Person to person
EXTD=
EXTT0=
EXTT1=
EXTT2=
EXTT3=
EXTT4=
EXTT5=
EXTT6=
EXTT7=
EXTT8=
EXTT9=
EXTT10=
EXTT11=
EXTT12=
EXTT13=
EXTT14=
EXTT15=
PLAYORDER=
